<svg width="40" height="40" viewBox="0 0 40 40" fill="none" xmlns="http://www.w3.org/2000/svg">
<path d="M16.2926 11C13.3874 11 11 13.3842 11 16.2926V23.7074C11 26.6126 13.3842 29 16.2926 29H23.7074C26.6126 29 29 26.6158 29 23.7074V16.2926C29 13.3874 26.6158 11 23.7074 11H16.2926ZM16.2926 12.6364H23.7074C25.7305 12.6364 27.3636 14.2695 27.3636 16.2926V23.7074C27.3636 25.7305 25.7305 27.3636 23.7074 27.3636H16.2926C14.2695 27.3636 12.6364 25.7305 12.6364 23.7074V16.2926C12.6364 14.2695 14.2695 12.6364 16.2926 12.6364ZM24.8324 14.4261C24.4201 14.4261 24.0909 14.7553 24.0909 15.1676C24.0909 15.5799 24.4201 15.9091 24.8324 15.9091C25.2447 15.9091 25.5739 15.5799 25.5739 15.1676C25.5739 14.7553 25.2447 14.4261 24.8324 14.4261ZM20 15.0909C17.2994 15.0909 15.0909 17.2994 15.0909 20C15.0909 22.7006 17.2994 24.9091 20 24.9091C22.7006 24.9091 24.9091 22.7006 24.9091 20C24.9091 17.2994 22.7006 15.0909 20 15.0909ZM20 16.7273C21.8185 16.7273 23.2727 18.1815 23.2727 20C23.2727 21.8185 21.8185 23.2727 20 23.2727C18.1815 23.2727 16.7273 21.8185 16.7273 20C16.7273 18.1815 18.1815 16.7273 20 16.7273Z" fill="black"/>
</svg>
