<svg id="Слой_1" data-name="Слой 1" xmlns="http://www.w3.org/2000/svg" width="287.719" height="37.531" viewBox="0 0 287.719 37.531">
  <defs>
    <style>
      .cls-1 {
        fill-rule: evenodd;
      }
    </style>
  </defs>
  <path id="_Compound_Path_" data-name="&lt;Compound Path&gt;" class="cls-1" d="M76.234,27.121A6.893,6.893,0,0,0,81.7,24.882,8.74,8.74,0,0,0,83.666,18.9,9.159,9.159,0,0,0,81.7,12.686a6.848,6.848,0,0,0-5.463-2.271,6.935,6.935,0,0,0-5.511,2.271,9.111,9.111,0,0,0-1.985,6.21,8.683,8.683,0,0,0,1.985,6,7.007,7.007,0,0,0,5.511,2.223m0-20.391a10.78,10.78,0,0,1,9.576,5.685A13.089,13.089,0,0,1,87.351,18.9a12.554,12.554,0,0,1-1.541,6.3,10.785,10.785,0,0,1-4.081,4.161,10.926,10.926,0,0,1-5.495,1.445,11.11,11.11,0,0,1-5.145-1.239A10.522,10.522,0,0,1,67.1,25.978a12.124,12.124,0,0,1-1.922-5.495H60.957v10h-3.43V7.048h3.43v10h4.224a12.335,12.335,0,0,1,1.969-5.526,10.586,10.586,0,0,1,3.97-3.573A11.041,11.041,0,0,1,76.234,6.73Z" transform="translate(-0.188)"/>
  <path id="_Path_" data-name="&lt;Path&gt;" class="cls-1" d="M105.224,30.487h-3.4V16.8H94.679v0.985a52.35,52.35,0,0,1-.445,8.051,5.765,5.765,0,0,1-1.715,3.621,6.375,6.375,0,0,1-4.034,1.032V27.121a2.606,2.606,0,0,0,1.842-.524,4.054,4.054,0,0,0,.715-2.367q0.174-1.842.175-6.447V13.4h14.007V30.487Z" transform="translate(-0.188)"/>
  <path id="_Path_2" data-name="&lt;Path&gt;" class="cls-1" d="M121.358,13.4h3.4V30.487h-3.4V18.577l-9.528,11.91H108.4V13.4h3.43V25.469Z" transform="translate(-0.188)"/>
  <path id="_Compound_Path_2" data-name="&lt;Compound Path&gt;" class="cls-1" d="M139.081,16.672h-4a7.344,7.344,0,0,0-3.065.477,1.973,1.973,0,0,0-.969,1.969,2.177,2.177,0,0,0,.985,2.08,6.424,6.424,0,0,0,3.049.556h4V16.672Zm3.4,13.816h-3.4V24.993h-4q-0.793,0-1.175-.032l-2.954,5.526h-3.3l3.049-6.129a4.188,4.188,0,0,1-2.4-1.954,7.1,7.1,0,0,1-.683-3.287,6.852,6.852,0,0,1,.62-3.081A4.232,4.232,0,0,1,130.49,14.1a12.025,12.025,0,0,1,4.589-.7h7.4V30.487Z" transform="translate(-0.188)"/>
  <path id="_Compound_Path_3" data-name="&lt;Compound Path&gt;" class="cls-1" d="M167.793,10.478h-5.812a10.743,10.743,0,0,0-5.177.953,3.493,3.493,0,0,0-1.652,3.3,3.733,3.733,0,0,0,1.636,3.51,10.584,10.584,0,0,0,5.193.968h5.812V10.478Zm3.4,20.009h-3.4V22.611h-5.812q-0.889,0-1.335-.032l-4.1,7.908h-4.16l4.6-8.639a8.249,8.249,0,0,1-3.859-2.652,6.99,6.99,0,0,1-1.413-4.463,6.679,6.679,0,0,1,1.366-4.271,8.066,8.066,0,0,1,3.684-2.573,15.179,15.179,0,0,1,5.209-.842h9.211V30.487Z" transform="translate(-0.188)"/>
  <path id="_Path_3" data-name="&lt;Path&gt;" class="cls-1" d="M190.28,13.4l-7.305,8.512,7.305,8.575h-4.192l-5.813-6.86H177.8v6.86h-3.43V13.4h3.43v6.86h2.382l5.908-6.86h4.192Z" transform="translate(-0.188)"/>
  <path id="_Path_4" data-name="&lt;Path&gt;" class="cls-1" d="M204.948,13.4h3.4V30.487h-3.4V18.577l-9.528,11.91h-3.43V13.4h3.43V25.469Z" transform="translate(-0.188)"/>
  <path id="_Path_5" data-name="&lt;Path&gt;" class="cls-1" d="M232.39,13.4V30.487h-3.653V18.355l-5.431,12.132h-2.382l-5.749-12.323V30.487h-3.652V13.4h5.24L222.2,25.152,227.4,13.4h4.987Z" transform="translate(-0.188)"/>
  <path id="_Compound_Path_4" data-name="&lt;Compound Path&gt;" class="cls-1" d="M243.22,27.375a4.5,4.5,0,0,0,3.588-1.461,5.843,5.843,0,0,0,1.271-3.97,5.842,5.842,0,0,0-1.271-3.97,5.1,5.1,0,0,0-7.146,0,5.842,5.842,0,0,0-1.27,3.97,5.842,5.842,0,0,0,1.27,3.97,4.464,4.464,0,0,0,3.558,1.461m0,3.43a8.442,8.442,0,0,1-4.463-1.128,7.292,7.292,0,0,1-2.827-3.128,10.444,10.444,0,0,1-.968-4.605,10.443,10.443,0,0,1,.968-4.606,7.292,7.292,0,0,1,2.827-3.128,9.456,9.456,0,0,1,8.957,0,7.292,7.292,0,0,1,2.827,3.128,10.457,10.457,0,0,1,.968,4.606,10.458,10.458,0,0,1-.968,4.605,7.292,7.292,0,0,1-2.827,3.128A8.506,8.506,0,0,1,243.22,30.805Z" transform="translate(-0.188)"/>
  <path id="_Compound_Path_5" data-name="&lt;Compound Path&gt;" class="cls-1" d="M263.7,27.121a4.817,4.817,0,0,0,2.429-.46,1.6,1.6,0,0,0,.747-1.477,1.644,1.644,0,0,0-.747-1.493,4.685,4.685,0,0,0-2.429-.476h-6.193v3.907H263.7Zm-6.193-7.273h4.763a5.219,5.219,0,0,0,2.271-.349,1.385,1.385,0,0,0,0-2.35,5.217,5.217,0,0,0-2.271-.35h-4.763v3.049Zm8.257,1.747a5.928,5.928,0,0,1,3.415,1.286,3.826,3.826,0,0,1,1.127,2.97,3.994,3.994,0,0,1-1.667,3.414,8.309,8.309,0,0,1-4.939,1.223H254.08V13.4H261.8q3.556,0,5.114,1.191a3.943,3.943,0,0,1,1.556,3.319,4.3,4.3,0,0,1-.62,2.287A3.26,3.26,0,0,1,265.768,21.595Z" transform="translate(-0.188)"/>
  <path id="_Compound_Path_6" data-name="&lt;Compound Path&gt;" class="cls-1" d="M278.631,27.375a8.117,8.117,0,0,0,4.256-.969,3.738,3.738,0,0,0,1.589-3.478h-5.845a3.743,3.743,0,0,0-2.223.556,1.929,1.929,0,0,0-.762,1.667q0,2.223,2.985,2.223M280.474,13.4a8.345,8.345,0,0,1,5.351,1.651q2.08,1.652,2.081,5.177V30.487h-3.43V26.2a5.553,5.553,0,0,1-2.081,3.589,6.589,6.589,0,0,1-3.764,1.017,8.182,8.182,0,0,1-3.081-.588,5.5,5.5,0,0,1-2.4-1.842,5.084,5.084,0,0,1-.936-3.128,4.513,4.513,0,0,1,1.857-3.986,7.812,7.812,0,0,1,4.558-1.286h5.845a2.934,2.934,0,0,0-1.065-2.414,4.945,4.945,0,0,0-2.937-.731q-3.613,0-4.016,2.107h-3.43a5.116,5.116,0,0,1,2.078-4.013A8.9,8.9,0,0,1,280.474,13.4Z" transform="translate(-0.188)"/>
  <path id="_Compound_Path_7" data-name="&lt;Compound Path&gt;" class="cls-1" d="M18.076,28.765l10-10-10-10-10,10Zm15.91-8.026-15.91,15.91L0.194,18.768,18.076,0.886,35.957,18.768Z" transform="translate(-0.188)"/>
  <path id="_Path_6" data-name="&lt;Path&gt;" class="cls-1" d="M29.867,37.534H6.285v-2.8H29.867v2.8Z" transform="translate(-0.188)"/>
  <path id="_Path_7" data-name="&lt;Path&gt;" class="cls-1" d="M29.867,2.8H6.285V0H29.867V2.8Z" transform="translate(-0.188)"/>
  <path id="_Path_8" data-name="&lt;Path&gt;" class="cls-1" d="M15.344,7.392V1.4h5.464v5.99H15.344Z" transform="translate(-0.188)"/>
  <path id="_Path_9" data-name="&lt;Path&gt;" class="cls-1" d="M15.344,36.133V30.144h5.464v5.989H15.344Z" transform="translate(-0.188)"/>
</svg>
