<svg width="288" height="38" viewBox="0 0 288 38" fill="none" xmlns="http://www.w3.org/2000/svg">
<g clip-path="url(#clip0_1602_2)">
<path fill-rule="evenodd" clip-rule="evenodd" d="M76.0459 27.1208C77.0659 27.176 78.0855 27.0037 79.0309 26.6165C79.9762 26.2292 80.8236 25.6367 81.5119 24.8818C82.8877 23.2013 83.5885 21.0688 83.4779 18.8998C83.6066 16.6575 82.9069 14.446 81.5119 12.6858C80.829 11.9229 79.9837 11.3229 79.0383 10.9299C78.0928 10.5369 77.0713 10.3609 76.0489 10.4148C75.0192 10.3598 73.9903 10.5352 73.0369 10.928C72.0836 11.3209 71.2299 11.9214 70.5379 12.6858C69.1329 14.4401 68.4259 16.6518 68.5529 18.8958C68.4374 21.0741 69.146 23.2162 70.5379 24.8958C71.2374 25.6475 72.0937 26.2363 73.046 26.6204C73.9984 27.0046 75.0235 27.1747 76.0489 27.1188M76.0489 6.72781C78.0113 6.71399 79.9403 7.23615 81.6278 8.23799C83.3154 9.23982 84.6974 10.6833 85.6249 12.4128C86.6889 14.4061 87.2187 16.641 87.1629 18.8998C87.2099 21.0985 86.6785 23.271 85.6219 25.1998C84.6692 26.9351 83.2573 28.3746 81.5409 29.3608C79.8687 30.3186 77.9729 30.8172 76.0459 30.8058C74.2561 30.8133 72.491 30.3882 70.9009 29.5668C69.2834 28.7353 67.909 27.4988 66.9119 25.9778C65.8344 24.3294 65.1748 22.4434 64.9899 20.4828H60.7689V30.4828H57.3389V7.04781H60.7689V17.0478H64.9929C65.1953 15.0743 65.8707 13.1787 66.9619 11.5218C67.9581 10.0111 69.3249 8.7809 70.9319 7.94881C72.5135 7.13663 74.2679 6.71845 76.0459 6.72981L76.0489 6.72781Z" fill="white"/>
<path fill-rule="evenodd" clip-rule="evenodd" d="M105.036 30.4869H101.636V16.7999H94.4909V17.7849C94.5497 20.476 94.401 23.1677 94.0459 25.8359C93.9255 27.2091 93.3171 28.4938 92.3309 29.4569C91.1396 30.2427 89.7191 30.6061 88.2969 30.4889V27.1209C88.9551 27.1864 89.6136 26.999 90.1389 26.5969C90.6179 25.9016 90.8678 25.0741 90.8539 24.2299C90.9699 23.0019 91.0282 20.8529 91.0289 17.7829V13.3999H105.036V30.4869Z" fill="white"/>
<path fill-rule="evenodd" clip-rule="evenodd" d="M121.17 13.3999H124.57V30.4869H121.17V18.5769L111.642 30.4869H108.212V13.3999H111.642V25.4689L121.17 13.3999Z" fill="white"/>
<path fill-rule="evenodd" clip-rule="evenodd" d="M138.893 16.6722H134.893C133.849 16.6112 132.804 16.7738 131.828 17.1492C131.49 17.3446 131.217 17.636 131.044 17.9866C130.872 18.3371 130.807 18.7309 130.859 19.1182C130.812 19.5223 130.88 19.9314 131.054 20.299C131.228 20.6666 131.502 20.9782 131.844 21.1982C132.8 21.6296 133.846 21.8205 134.893 21.7542H138.893V16.6722ZM142.293 30.4882H138.893V24.9932H134.893C134.364 24.9932 133.973 24.9825 133.718 24.9612L130.764 30.4872H127.464L130.513 24.3582C129.493 24.0372 128.634 23.3381 128.113 22.4042C127.626 21.3789 127.391 20.2517 127.43 19.1172C127.395 18.056 127.607 17.0013 128.05 16.0362C128.542 15.14 129.342 14.4523 130.302 14.1002C131.772 13.571 133.33 13.3333 134.891 13.4002H142.291V30.4872L142.293 30.4882Z" fill="white"/>
<path fill-rule="evenodd" clip-rule="evenodd" d="M167.605 10.478H161.793C160.015 10.3614 158.236 10.6889 156.616 11.431C156.06 11.772 155.61 12.2618 155.318 12.845C155.026 13.4282 154.904 14.0816 154.964 14.731C154.889 15.4097 155.003 16.0959 155.291 16.7147C155.579 17.3336 156.032 17.8615 156.6 18.241C158.221 18.9974 160.008 19.3304 161.793 19.209H167.605V10.478ZM171.005 30.487H167.605V22.611H161.793C161.2 22.611 160.755 22.6003 160.458 22.579L156.358 30.487H152.198L156.798 21.848C155.282 21.3553 153.942 20.4342 152.939 19.196C151.969 17.915 151.47 16.3388 151.526 14.733C151.475 13.1944 151.958 11.6857 152.892 10.462C153.851 9.27268 155.129 8.38038 156.576 7.88899C158.25 7.30637 160.013 7.0214 161.785 7.04699H170.996V30.487H171.005Z" fill="white"/>
<path fill-rule="evenodd" clip-rule="evenodd" d="M190.092 13.3999L182.787 21.9119L190.092 30.4869H185.9L180.087 23.6269H177.612V30.4869H174.182V13.3999H177.612V20.2599H179.994L185.902 13.3999H190.094H190.092Z" fill="white"/>
<path fill-rule="evenodd" clip-rule="evenodd" d="M204.76 13.3999H208.16V30.4869H204.76V18.5769L195.232 30.4869H191.802V13.3999H195.232V25.4689L204.76 13.3999Z" fill="white"/>
<path fill-rule="evenodd" clip-rule="evenodd" d="M232.202 13.3999V30.4869H228.549V18.3549L223.118 30.4869H220.736L214.987 18.1639V30.4869H211.335V13.3999H216.575L222.012 25.1519L227.212 13.3999H232.199H232.202Z" fill="white"/>
<path fill-rule="evenodd" clip-rule="evenodd" d="M243.032 27.3748C243.701 27.4139 244.37 27.303 244.991 27.0502C245.612 26.7974 246.168 26.4092 246.62 25.9138C247.517 24.7918 247.969 23.3784 247.891 21.9438C247.97 20.5092 247.517 19.0958 246.62 17.9738C245.666 17.0376 244.383 16.513 243.047 16.513C241.71 16.513 240.427 17.0376 239.474 17.9738C238.577 19.096 238.124 20.5094 238.204 21.9438C238.124 23.3783 238.577 24.7917 239.474 25.9138C239.92 26.4072 240.472 26.7944 241.087 27.0472C241.703 27.3 242.367 27.4119 243.032 27.3748ZM243.032 30.8048C241.468 30.8495 239.923 30.459 238.569 29.6768C237.339 28.9353 236.355 27.8471 235.742 26.5488C235.073 25.1074 234.742 23.5325 234.774 21.9438C234.742 20.3548 235.073 18.7795 235.742 17.3378C236.355 16.0395 237.339 14.9514 238.569 14.2098C239.945 13.4695 241.484 13.082 243.047 13.082C244.61 13.082 246.149 13.4695 247.526 14.2098C248.755 14.9514 249.739 16.0395 250.353 17.3378C251.021 18.7797 251.352 20.3549 251.321 21.9438C251.352 23.5324 251.021 25.1073 250.353 26.5488C249.739 27.8471 248.755 28.9353 247.526 29.6768C246.161 30.4614 244.605 30.8519 243.032 30.8048Z" fill="white"/>
<path fill-rule="evenodd" clip-rule="evenodd" d="M263.512 27.1209C264.348 27.1815 265.185 27.0229 265.941 26.6609C266.188 26.5062 266.388 26.2868 266.52 26.0265C266.652 25.7662 266.71 25.4748 266.688 25.1839C266.708 24.891 266.649 24.5981 266.518 24.3355C266.386 24.073 266.187 23.8504 265.941 23.6909C265.188 23.3174 264.349 23.1529 263.512 23.2149H257.319V27.1219L263.512 27.1209ZM257.319 19.8479H262.082C262.855 19.9017 263.631 19.7825 264.353 19.4989C264.552 19.3745 264.716 19.2013 264.831 18.9957C264.945 18.7902 265.004 18.559 265.004 18.3239C265.004 18.0888 264.945 17.8576 264.831 17.6521C264.716 17.4465 264.552 17.2733 264.353 17.1489C263.631 16.8649 262.855 16.7453 262.082 16.7989H257.319V19.8479ZM265.576 21.5949C266.821 21.6538 268.016 22.1038 268.991 22.8809C269.38 23.2664 269.682 23.731 269.877 24.2434C270.071 24.7558 270.153 25.304 270.118 25.8509C270.145 26.5136 270.007 27.1728 269.716 27.7688C269.425 28.3648 268.99 28.879 268.451 29.2649C266.973 30.179 265.245 30.6068 263.512 30.4879H253.892V13.3999H261.612C263.982 13.3999 265.687 13.7969 266.726 14.5909C267.234 14.9768 267.642 15.4805 267.913 16.0586C268.184 16.6367 268.31 17.272 268.282 17.9099C268.293 18.7153 268.078 19.5077 267.662 20.1969C267.424 20.5558 267.118 20.8642 266.76 21.1041C266.403 21.3441 266.002 21.5109 265.58 21.5949H265.576Z" fill="white"/>
<path fill-rule="evenodd" clip-rule="evenodd" d="M278.443 27.3751C279.923 27.4467 281.395 27.1116 282.699 26.4061C283.252 26.0231 283.692 25.4978 283.972 24.8856C284.251 24.2734 284.36 23.5971 284.288 22.9281H278.443C277.662 22.8764 276.884 23.0709 276.22 23.4841C275.964 23.6769 275.761 23.9303 275.628 24.2213C275.495 24.5123 275.436 24.8318 275.458 25.1511C275.458 26.6331 276.453 27.3751 278.443 27.3751ZM280.286 13.4001C282.206 13.3176 284.096 13.9008 285.637 15.0511C287.023 16.1524 287.717 17.8781 287.718 20.2281V30.4871H284.288V26.2001C284.084 27.6203 283.338 28.9065 282.207 29.7891C281.083 30.5 279.771 30.8545 278.443 30.8061C277.387 30.8106 276.341 30.6109 275.362 30.2181C274.405 29.8405 273.574 29.2023 272.962 28.3761C272.314 27.4647 271.985 26.3653 272.026 25.2481C271.97 24.4804 272.111 23.7112 272.436 23.0136C272.761 22.3159 273.259 21.713 273.883 21.2621C275.232 20.3721 276.825 19.9228 278.441 19.9761H284.286C284.309 19.5185 284.225 19.0618 284.04 18.6426C283.855 18.2234 283.574 17.8533 283.221 17.5621C282.342 17.0174 281.315 16.7618 280.284 16.8311C277.875 16.8311 276.536 17.5334 276.268 18.9381H272.838C272.854 18.1547 273.049 17.3855 273.41 16.6897C273.77 15.9939 274.285 15.3902 274.916 14.9251C276.496 13.854 278.378 13.3193 280.286 13.4001Z" fill="white"/>
<path fill-rule="evenodd" clip-rule="evenodd" d="M17.8879 28.7652L27.8879 18.7652L17.8879 8.76523L7.88786 18.7652L17.8879 28.7652ZM33.7979 20.7392L17.8879 36.6492L0.00585938 18.7682L17.8879 0.88623L35.7689 18.7682L33.7979 20.7392Z" fill="white"/>
<path fill-rule="evenodd" clip-rule="evenodd" d="M29.6787 37.5339H6.09668V34.7339H29.6787V37.5339Z" fill="white"/>
<path fill-rule="evenodd" clip-rule="evenodd" d="M29.6787 2.8H6.09668V0H29.6787V2.8Z" fill="white"/>
<path fill-rule="evenodd" clip-rule="evenodd" d="M15.1562 7.3919V1.3999H20.6203V7.3899H15.1562V7.3919Z" fill="white"/>
<path fill-rule="evenodd" clip-rule="evenodd" d="M15.1562 36.133V30.144H20.6203V36.133H15.1562Z" fill="white"/>
</g>
<defs>
<clipPath id="clip0_1602_2">
<rect width="287.719" height="37.531" fill="white"/>
</clipPath>
</defs>
</svg>
