<svg width="40" height="40" viewBox="0 0 40 40" fill="none" xmlns="http://www.w3.org/2000/svg">
<path fill-rule="evenodd" clip-rule="evenodd" d="M11.2324 20.4319C16.0633 18.334 19.2792 16.9399 20.8941 16.2636C25.4903 14.3451 26.4565 14.0138 27.0776 14C27.2156 14 27.5193 14.0276 27.7263 14.1932C27.8919 14.3313 27.9334 14.5107 27.961 14.6487C27.9886 14.7867 28.0162 15.0766 27.9886 15.2974C27.7401 17.9199 26.6635 24.2828 26.1114 27.2089C25.8768 28.4511 25.4213 28.8652 24.9796 28.9066C24.0135 28.9894 23.2819 28.2717 22.3572 27.6644C20.8941 26.712 20.0798 26.1185 18.6581 25.18C17.0156 24.1034 18.0784 23.5099 19.017 22.5437C19.2654 22.2953 23.5028 18.4306 23.5856 18.0855C23.5994 18.0441 23.5994 17.8785 23.5028 17.7957C23.4062 17.7128 23.2681 17.7405 23.1577 17.7681C23.0059 17.7957 20.6871 19.3415 16.1737 22.3919C15.5112 22.8473 14.9177 23.0682 14.3794 23.0544C13.7859 23.0406 12.6541 22.7231 11.7983 22.4471C10.7632 22.1158 9.93501 21.9364 10.004 21.3567C10.0454 21.053 10.4595 20.7494 11.2324 20.4319Z" fill="black"/>
</svg>
